<svg width="174" height="121" viewBox="0 0 174 121" fill="none" xmlns="http://www.w3.org/2000/svg"><circle cx="46.63" cy="61.13" r="44.88" fill="#fff"/><path d="M98 6.5h71a5 5 0 0 1 5 5v98a5 5 0 0 1-5 5H98V6.5Z" fill="#253D65"/><path d="M125 90.81v5.85h6.86a4.38 4.38 0 0 1 1.41-2.63 4.11 4.11 0 0 1 5.46 0 4.38 4.38 0 0 1 1.41 2.63H147v-5.85h-22Zm11 3.47c-.78 0-1.52.32-2.07.89a3.1 3.1 0 0 0 0 4.29 2.9 2.9 0 0 0 4.78-.99 3.14 3.14 0 0 0-.64-3.3 2.93 2.93 0 0 0-2.07-.9v.01Zm-11 3.68v5.85h22v-5.85h-6.86a4.38 4.38 0 0 1-1.41 2.64 4.11 4.11 0 0 1-5.46 0 4.38 4.38 0 0 1-1.41-2.64H125Z" fill="#F3D94E"/><path d="M135.56 82.15c-2.38 0-4.88-2.02-6.87-6.1-1.95-4-3.19-9.62-3.19-15.9 0-6.27 1.24-11.89 3.19-15.89 1.99-4.09 4.5-6.1 6.87-6.1 2.38 0 4.89 2.01 6.88 6.1 1.94 4 3.19 9.62 3.19 15.9 0 6.27-1.25 11.88-3.2 15.89-1.98 4.08-4.49 6.1-6.87 6.1Z" stroke="#F3D94E" stroke-width="2.5"/><path d="M136 82.15a22 22 0 1 0 0-44 22 22 0 0 0 0 44Z" stroke="#F3D94E" stroke-width="2.5"/><path d="M114 59.53h44v1.25h-44v-1.25Z" stroke="#F3D94E" stroke-width="1.25"/><path d="M135.37 82.15v-44h1.25v44h-1.25Z" stroke="#F3D94E" stroke-width="1.25"/><mask id="a" style="mask-type:alpha" maskUnits="userSpaceOnUse" x="112" y="36" width="48" height="48"><path d="M136 83.4a23.25 23.25 0 1 0 0-46.5 23.25 23.25 0 0 0 0 46.5Z" fill="#F3D94E"/></mask><g mask="url(#a)"><path d="M114 42.28c0-2.38 2.02-4.89 6.1-6.87 4-1.95 9.63-3.2 15.9-3.2s11.89 1.25 15.9 3.2c4.08 1.98 6.1 4.5 6.1 6.87 0 2.38-2.02 4.89-6.1 6.88-4.01 1.94-9.63 3.18-15.9 3.18s-11.9-1.24-15.9-3.18c-4.08-2-6.1-4.5-6.1-6.88Zm0 35.88c0-2.38 2.02-4.9 6.1-6.88 4-1.95 9.63-3.19 15.9-3.19s11.9 1.24 15.9 3.19c4.08 1.99 6.1 4.5 6.1 6.88 0 2.37-2.02 4.88-6.1 6.87-4 1.95-9.63 3.19-15.9 3.19s-11.9-1.24-15.9-3.19c-4.08-1.99-6.1-4.5-6.1-6.87Z" stroke="#F3D94E" stroke-width="2.5"/></g><path d="M107.14 29v-7.42h2.93c.56 0 1.04.1 1.44.32.4.22.7.51.9.9.22.37.32.8.32 1.3 0 .49-.1.92-.32 1.3a2.2 2.2 0 0 1-.92.88c-.4.21-.89.31-1.46.31h-1.86v-1.25h1.6c.31 0 .56-.05.75-.16a1 1 0 0 0 .45-.44c.1-.18.14-.4.14-.64 0-.25-.05-.47-.14-.65a1 1 0 0 0-.45-.43c-.2-.1-.44-.16-.75-.16h-1.06V29h-1.57Zm7.54 0H113l2.56-7.42h2.02l2.56 7.42h-1.68l-1.86-5.72h-.06L114.68 29Zm-.1-2.92h3.97v1.23h-3.97v-1.23Zm10.82-2.36a.93.93 0 0 0-.38-.69 1.48 1.48 0 0 0-.9-.24c-.25 0-.46.04-.64.11a.91.91 0 0 0-.4.3.7.7 0 0 0-.14.42c0 .13.02.25.08.35.06.1.15.18.26.26a2.96 2.96 0 0 0 .83.31l.67.16c.32.07.62.17.89.29.27.12.5.27.7.45a1.83 1.83 0 0 1 .63 1.44 2 2 0 0 1-.35 1.18c-.22.33-.55.59-.98.77-.43.18-.94.28-1.55.28-.6 0-1.12-.1-1.56-.28a2.3 2.3 0 0 1-1.04-.82c-.26-.4-.4-.86-.39-1.34h1.52c.02.25.09.46.21.62.13.17.3.3.52.38.21.08.45.12.72.12.27 0 .5-.04.7-.12.2-.07.35-.18.46-.32a.8.8 0 0 0 .16-.47c0-.17-.05-.3-.15-.42-.1-.12-.24-.21-.43-.3a4.36 4.36 0 0 0-.68-.21l-.81-.2a3.4 3.4 0 0 1-1.48-.72 1.67 1.67 0 0 1-.54-1.3c0-.45.12-.85.36-1.18.24-.34.58-.6 1-.79.43-.19.9-.28 1.45-.28.55 0 1.03.1 1.44.28.42.2.74.45.97.79.23.33.34.72.35 1.17h-1.5Zm7.2 0a.93.93 0 0 0-.38-.69 1.48 1.48 0 0 0-.9-.24c-.25 0-.47.04-.64.11a.9.9 0 0 0-.41.3.7.7 0 0 0-.14.42c0 .13.02.25.09.35.06.1.14.18.25.26a3.09 3.09 0 0 0 .84.31l.66.16c.32.07.62.17.9.29.26.12.5.27.7.45a1.86 1.86 0 0 1 .63 1.44 2 2 0 0 1-1.34 1.95c-.43.18-.94.28-1.54.28-.6 0-1.13-.1-1.57-.28a2.3 2.3 0 0 1-1.03-.82c-.26-.4-.4-.86-.4-1.34h1.53c.01.25.08.46.2.62.14.17.3.3.52.38.21.08.46.12.73.12.26 0 .5-.04.69-.12.2-.07.35-.18.46-.32a.8.8 0 0 0 .16-.47c0-.17-.05-.3-.15-.42-.1-.12-.24-.21-.42-.3a4.4 4.4 0 0 0-.69-.21l-.8-.2a3.39 3.39 0 0 1-1.49-.72 1.67 1.67 0 0 1-.54-1.3c0-.45.12-.85.36-1.18.25-.34.58-.6 1-.79.43-.19.91-.28 1.45-.28.55 0 1.03.1 1.44.28.42.2.74.45.97.79a2 2 0 0 1 .35 1.17h-1.5.01Zm3.16 5.28v-7.42h2.93c.56 0 1.04.1 1.44.32.4.22.7.51.9.9.21.37.32.8.32 1.3 0 .49-.11.92-.32 1.3a2.2 2.2 0 0 1-.93.88c-.4.21-.88.31-1.45.31h-1.87v-1.25h1.61c.3 0 .55-.05.75-.16.2-.1.35-.25.44-.44.1-.18.15-.4.15-.64 0-.25-.05-.47-.15-.65a1 1 0 0 0-.44-.43c-.2-.1-.45-.16-.75-.16h-1.06V29h-1.57Zm13.94-3.7c0 .8-.16 1.49-.47 2.06a3.24 3.24 0 0 1-3.01 1.74c-.66 0-1.25-.15-1.78-.45a3.2 3.2 0 0 1-1.24-1.3 4.3 4.3 0 0 1-.46-2.06c0-.8.16-1.5.46-2.06.3-.57.72-1 1.24-1.3.53-.3 1.12-.45 1.78-.45.65 0 1.24.15 1.77.45.52.3.94.73 1.24 1.3.3.56.46 1.25.46 2.06l.01.01Zm-1.6 0c0-.53-.08-.97-.23-1.33a1.8 1.8 0 0 0-.66-.82c-.3-.2-.65-.29-1-.28-.37 0-.7.1-.99.28-.28.18-.5.46-.65.82-.16.36-.24.8-.24 1.32 0 .53.08.97.24 1.33.15.36.37.63.66.82.28.18.6.27.99.27.38 0 .7-.09.99-.27.28-.2.5-.46.66-.82.15-.36.23-.8.23-1.33v.01Zm3.26 3.7v-7.42h2.93c.56 0 1.04.1 1.43.3.4.2.7.48.91.85.21.36.32.78.32 1.28 0 .49-.1.91-.32 1.27a2 2 0 0 1-.92.8c-.4.2-.89.29-1.46.29h-1.96v-1.26h1.7c.3 0 .55-.04.75-.12.2-.09.35-.2.44-.37.1-.17.15-.37.15-.61 0-.25-.05-.46-.15-.63a.92.92 0 0 0-.44-.38c-.2-.1-.45-.14-.75-.14h-1.06V29h-1.57Zm4-3.38 1.85 3.38h-1.73l-1.8-3.38h1.69-.01Zm2.92-2.74v-1.3h6.1v1.3h-2.27V29h-1.56v-6.13h-2.27v.01Z" fill="#F3D94E"/><path d="M46.5 106a45 45 0 1 0 0-90 45 45 0 0 0 0 90Z" stroke="#949494" stroke-width="3"/><path d="M121.47 98.72a1.5 1.5 0 0 0 1.06-2.81l-1.06 2.8v.01Zm1.06-2.81L85.75 82l-1.06 2.8 36.78 13.92 1.06-2.81Z" fill="#949494"/><path d="M17.5 43.43v14.91h18.1a11.05 11.05 0 0 1 21.81 0H75.5V43.43h-58Zm29 8.84a7.73 7.73 0 1 0 0 15.46 7.73 7.73 0 0 0 0-15.46Zm-29 9.39v14.91h58V61.66H57.4a11.05 11.05 0 0 1-21.81 0H17.5Z" fill="#000"/></svg>
