<svg width="70" height="70" viewBox="0 0 70 70" fill="none" xmlns="http://www.w3.org/2000/svg">
<rect width="70" height="70" fill="#D2E2F1"/>
<ellipse cx="35.4999" cy="29.3925" rx="9.55263" ry="9.4902" fill="#FCF5F5"/>
<path d="M35.0017 13C25.613 13 18 20.5282 18 29.8123C18 35.88 21.2526 41.1975 26.1266 44.1517L32.3029 56.38C32.9407 57.389 34.0215 58.0131 35.1225 57.9998C36.0859 57.9865 37.0123 57.5019 37.6602 56.7019C39.879 52.4997 42.0272 48.241 44.1655 43.9757C48.8783 40.9884 52 35.7605 52 29.8123C52 20.5282 44.387 13 34.9983 13H35.0017ZM35.0017 38.2068C30.5171 38.2068 26.8785 34.612 26.8785 30.1741C26.8785 25.7362 30.5138 22.1414 35.0017 22.1414C39.4896 22.1414 43.1249 25.7362 43.1249 30.1741C43.1249 34.612 39.4896 38.2068 35.0017 38.2068Z" fill="#CA3535"/>
</svg>
